<?xml version="1.0" ?><!DOCTYPE svg  PUBLIC '-//W3C//DTD SVG 1.1//EN'  'http://www.w3.org/Graphics/SVG/1.1/DTD/svg11.dtd'><svg height="135px" id="Layer_1" style="enable-background:new 0 0 135 135;" version="1.1" viewBox="0 0 135 135" width="135px" xml:space="preserve" xmlns="http://www.w3.org/2000/svg" xmlns:xlink="http://www.w3.org/1999/xlink"><style type="text/css">
<![CDATA[
	.st0{fill:#465652;}
	.st1{fill:#AAB9BA;}
	.st2{fill:#47C67B;}
	.st3{fill:#AAC8D1;}
	.st4{fill:none;stroke:#E83834;stroke-width:6;stroke-linecap:round;stroke-linejoin:round;stroke-miterlimit:10;}
	.st5{fill:#7BC67B;}
	.st6{fill:#7BC7FF;}
	.st7{fill:#7C34C1;}
	.st8{fill:#7C8D96;}
	.st9{fill:#AD2707;}
	.st10{fill:#ADB8BC;}
	.st11{fill:#107510;}
	.st12{fill:#7FE5D8;}
	.st13{fill:#AF4AD1;}
	.st14{fill:#E02B7E;}
	.st15{fill:#E04038;}
	.st16{fill:#AFD7DD;}
	.st17{fill:#E0A010;}
	.st18{fill:#E0D5A4;}
	.st19{fill:#12B2B2;}
	.st20{fill:#12D66B;}
	.st21{fill:#E1A9FF;}
	.st22{fill:#1362A8;}
	.st23{fill:#E2378D;}
	.st24{fill:#E29C37;}
	.st25{fill:#E2B90E;}
	.st26{fill:#E2BF91;}
	.st27{fill:#E2CBAA;}
	.st28{fill:#14A594;}
	.st29{fill:#E4E9ED;}
	.st30{fill:#4A5D60;}
	.st31{fill:#E5B076;}
	.st32{fill:#E5B1C4;}
	.st33{fill:#E5E4C3;}
	.st34{fill:#4B6466;}
	.st35{fill:#E6FF2E;}
	.st36{fill:#18AA67;}
	.st37{fill:#E86207;}
	.st38{fill:#E8A113;}
	.st39{fill:#E8B5A6;}
	.st40{fill:#E8E8ED;}
	.st41{fill:#4E5154;}
	.st42{fill:#E9F1F4;}
	.st43{fill:#4F4B48;}
	.st44{fill:#4F74E8;}
	.st45{fill:#808E93;}
	.st46{fill:#80949B;}
	.st47{fill:#80EDAC;}
	.st48{fill:#B122E0;}
	.st49{fill:#B2C4CC;}
	.st50{fill:#83D839;}
	.st51{fill:#B3C6C6;}
	.st52{fill:none;stroke:#33363A;stroke-width:3;stroke-linecap:round;stroke-linejoin:round;stroke-miterlimit:10;}
	.st53{fill:#1A8E1C;}
	.st54{fill:#1A93D6;}
	.st55{fill:#B50B0B;}
	.st56{fill:#1AD88F;}
	.st57{fill:#B5DAF4;}
	.st58{fill:#EA7B1F;}
	.st59{fill:#EA81BD;}
	.st60{fill:#87B8D6;}
	.st61{fill:#87C3F4;}
	.st62{fill:#EAC79D;}
	.st63{fill:#EADF11;}
	.st64{fill:#EAE4C5;}
	.st65{fill:#B78094;}
	.st66{fill:#8844D8;}
	.st67{fill:#EBF4F7;}
	.st68{fill:#893015;}
	.st69{fill:#89410B;}
	.st70{fill:#899BA3;}
	.st71{fill:#EDE3B9;}
	.st72{enable-background:new    ;}
	.st73{fill:#50FF9F;}
	.st74{fill:#EEDCF4;}
	.st75{fill:#EFA37D;}
	.st76{fill:#EFA3CC;}
	.st77{fill:#EFC99A;}
	.st78{fill:#54AF79;}
	.st79{fill:#BA503A;}
	.st80{fill:#BA8663;}
	.st81{fill:#8B4FE0;}
	.st82{fill:#58ED9B;}
	.st83{fill:#BC7DFF;}
	.st84{fill:#8D9AA3;}
	.st85{fill:#BCCAD3;}
	.st86{fill:#8DE4FF;}
	.st87{fill:#20B518;}
	.st88{fill:#BF44F2;}
	.st89{fill:#21CEA1;}
	.st90{fill:#BFDAE0;}
	.st91{fill:#F0FBFC;}
	.st92{fill:#F2D9A7;}
	.st93{fill:#F2EAC9;}
	.st94{fill:#24D1AF;}
	.st95{fill:#25931C;}
	.st96{fill:#F4C4B3;}
	.st97{fill:#F4D3A2;}
	.st98{fill:#F4D647;}
	.st99{fill:#F4D7B8;}
	.st100{fill:#F4EC8E;}
	.st101{fill:#5B524D;}
	.st102{fill:#F77819;}
	.st103{fill:#F79AE1;}
	.st104{fill:#5E707A;}
	.st105{fill:#F93585;}
	.st106{fill:#F95D5D;}
	.st107{fill:#F9C19B;}
	.st108{fill:#F9CB58;}
	.st109{fill:#F9D2B2;}
	.st110{fill:#F9F07D;}
	.st111{fill:#F9F1D2;}
	.st112{fill:#F9F4B7;}
	.st113{fill:#F9F9E4;}
	.st114{fill:#5F1DAA;}
	.st115{fill:#5F9AD6;}
	.st116{fill:#C0C0C4;}
	.st117{fill:#91EA57;}
	.st118{fill:#C12727;}
	.st119{fill:#C191A0;}
	.st120{fill:#923BB7;}
	.st121{fill:#93A0A3;}
	.st122{fill:#93F9EA;}
	.st123{fill:#93FF5A;}
	.st124{fill:#C4833D;}
	.st125{fill:#95A2A5;}
	.st126{fill:#965514;}
	.st127{fill:#96562C;}
	.st128{fill:#2AF42F;}
	.st129{fill:#C5D7DD;}
	.st130{fill:#C68510;}
	.st131{fill:#C6A86D;}
	.st132{fill:#C6BB8D;}
	.st133{fill:#2C9DCE;}
	.st134{fill:#FBFCF2;}
	.st135{fill:#FC70B0;}
	.st136{fill:#FCE6C8;}
	.st137{fill:#FCF7E3;}
	.st138{fill:#C90D6B;}
	.st139{fill:#FDFEFF;}
	.st140{fill:#FDFFDC;}
	.st141{fill:#FF1A1A;}
	.st142{fill:#FF5252;}
	.st143{fill:#FF5B00;}
	.st144{fill:#FF6155;}
	.st145{fill:#FF630D;}
	.st146{fill:#FF6666;}
	.st147{fill:#FF7676;}
	.st148{fill:#FF7900;}
	.st149{fill:#FF860D;}
	.st150{fill:#FF8B00;}
	.st151{fill:#FF8F8F;}
	.st152{fill:#FF900B;}
	.st153{fill:#FF908A;}
	.st154{fill:#FF960B;}
	.st155{fill:#FF9C0D;}
	.st156{fill:#FFA9D4;}
	.st157{fill:#FFAA00;}
	.st158{fill:#FFAD40;}
	.st159{fill:#FFAF10;}
	.st160{fill:#FFB000;}
	.st161{fill:#FFBE08;}
	.st162{fill:#FFBF31;}
	.st163{fill:#FFC200;}
	.st164{fill:#FFCAE8;}
	.st165{fill:#FFCCF5;}
	.st166{fill:#FFD00B;}
	.st167{fill:#FFD039;}
	.st168{fill:#FFD400;}
	.st169{fill:#FFD833;}
	.st170{fill:#FFDB80;}
	.st171{fill:#FFDDD2;}
	.st172{fill:#FFE6D4;}
	.st173{fill:#FFE6EB;}
	.st174{fill:#FFE98D;}
	.st175{fill:#FFECD2;}
	.st176{fill:#FFF1D9;}
	.st177{fill:#FFF24D;}
	.st178{fill:#FFF3C2;}
	.st179{fill:#FFF4C7;}
	.st180{fill:#FFF800;}
	.st181{fill:#FFF80D;}
	.st182{fill:#FFF9DE;}
	.st183{fill:#FFFBD7;}
	.st184{fill:#FFFBEB;}
	.st185{fill:#FFFCC0;}
	.st186{fill:#FFFCDC;}
	.st187{fill:#FFFFFA;}
	.st188{fill:#FFFFFF;}
	.st189{fill:#63797F;}
	.st190{fill:#65E529;}
	.st191{fill:#66310E;}
	.st192{fill:#663C17;}
	.st193{fill:#9A5AE5;}
	.st194{fill:#CA30EF;}
	.st195{fill:#6892FC;}
	.st196{fill:#9CFFC4;}
	.st197{fill:#CC4306;}
	.st198{fill:#CC549E;}
	.st199{fill:#9E3256;}
	.st200{fill:#CDFFBB;}
	.st201{fill:#CE86AF;}
	.st202{fill:#CED9DD;}
	
		.st203{fill:none;stroke:#33363A;stroke-width:3;stroke-linecap:round;stroke-linejoin:round;stroke-miterlimit:10;stroke-dasharray:6;}
	.st204{fill:#CFE1E2;}
	.st205{fill:#33363A;}
	.st206{fill:#34C166;}
	.st207{fill:#364B5B;}
	.st208{fill:#3662CE;}
	.st209{fill:#36C6FF;}
	.st210{fill:#6ADB9A;}
	.st211{fill:#6D5C4D;}
	.st212{fill:#6EBDF9;}
	.st213{fill:#0031FF;}
	.st214{fill:#0062FF;}
	.st215{fill:#0068FF;}
	.st216{fill:#0086FF;}
	.st217{fill:#009BE8;}
	.st218{fill:#00AAFF;}
	.st219{fill:#D271FF;}
	.st220{fill:#D363A9;}
	.st221{fill:#D3964C;}
	.st222{fill:#D3DFE2;}
	.st223{fill:#D3E0E2;}
	.st224{fill:#D3EFF4;}
	.st225{fill:#063B66;}
	.st226{fill:#D60909;}
	.st227{fill:#D61D1D;}
	.st228{fill:#D7F0FF;}
	.st229{fill:#09B285;}
	.st230{fill:#D8D593;}
	.st231{fill:#D8E2EA;}
	.st232{fill:#D8E5EA;}
	.st233{fill:#3E5054;}
	.st234{fill:#D988FF;}
	.st235{fill:#D9E7E8;}
	.st236{fill:#702252;}
	.st237{fill:#70D3E0;}
	.st238{fill:#A02FF2;}
	.st239{fill:#A2F255;}
	.st240{fill:#A35616;}
	.st241{fill:#A3CCCC;}
	.st242{fill:#0A6ADD;}
	.st243{fill:#A5145D;}
	.st244{fill:#A57555;}
	.st245{fill:#77D6FC;}
	.st246{fill:#7815CE;}
	.st247{fill:#A7BBC1;}
	.st248{fill:#DBD279;}
	.st249{fill:#0D5C9E;}
	.st250{fill:#A83C11;}
	.st251{fill:#A8633D;}
	.st252{fill:#A8A3E5;}
	.st253{fill:#DCE6EA;}
	.st254{fill:#DCE7EA;}
	.st255{fill:#A962E8;}
	.st256{fill:#DD2466;}
	.st257{fill:#DDC38A;}
	.st258{fill:#DDD2B1;}
	.st259{fill:#DFE7E8;}
	.st260{fill:#42B1E8;}
	.st261{fill:#436377;}
	.st262{fill:#43B530;}
]]>
</style><g><g><g><g><g><g><path class="st177" d="M67.501,129.956c-2.877,0-5.459-1.759-6.514-4.434L34.63,58.645c-1.418-3.597,0.35-7.661,3.945-9.079        c3.6-1.416,7.662,0.349,9.08,3.946l19.846,50.354l19.844-50.354c1.42-3.597,5.484-5.362,9.08-3.946        c3.598,1.418,5.363,5.482,3.945,9.079l-26.357,66.878C72.958,128.198,70.376,129.956,67.501,129.956z"/></g></g><g><g><path class="st177" d="M102.837,37.794c-0.855,0-1.723-0.157-2.566-0.489c-3.596-1.418-5.363-5.482-3.945-9.079l1.934-4.905        l-28.584,9.342c-1.412,0.463-2.936,0.463-4.35,0L36.741,23.32l1.934,4.905c1.418,3.597-0.35,7.661-3.945,9.079        c-3.598,1.418-7.662-0.35-9.08-3.946L18.261,14.61c-0.994-2.522-0.441-5.393,1.418-7.366c1.859-1.973,4.691-2.697,7.27-1.854        l40.553,13.254l40.551-13.254c2.58-0.844,5.412-0.119,7.27,1.854c1.861,1.974,2.412,4.844,1.418,7.366l-7.389,18.748        C108.265,36.112,105.628,37.794,102.837,37.794z"/></g></g></g><g><g><path class="st166" d="M67.501,129.956c2.875,0,5.457-1.758,6.512-4.434l25.875-65.654c-0.764-1.303-1.947-2.373-3.463-2.97       c-3.596-1.416-7.66,0.35-9.08,3.946l-19.844,50.354L47.655,60.845c-1.418-3.598-5.48-5.362-9.08-3.946       c-1.514,0.597-2.699,1.667-3.463,2.97l25.875,65.654C62.042,128.197,64.624,129.956,67.501,129.956z"/></g><g><path class="st166" d="M100.271,37.305c0.844,0.332,1.711,0.489,2.566,0.489c2.791,0,5.428-1.682,6.514-4.436l6.902-17.512       c-0.264-0.449-0.564-0.881-0.932-1.27c-1.857-1.973-4.689-2.697-7.27-1.854L67.501,25.978L26.948,12.724       c-2.578-0.844-5.41-0.119-7.27,1.854c-0.367,0.389-0.666,0.82-0.93,1.27l6.9,17.512c1.418,3.597,5.482,5.364,9.08,3.946       c1.514-0.597,2.699-1.667,3.463-2.97l-1.451-3.682l2.387,0.779c0.098-1.057-0.037-2.151-0.453-3.207l-1.934-4.905l28.584,9.342       c1.414,0.463,2.938,0.463,4.35,0l28.584-9.342l-1.934,4.905c-0.416,1.056-0.551,2.15-0.451,3.207l2.385-0.779l-1.451,3.682       C97.573,35.638,98.757,36.708,100.271,37.305z"/></g></g><g><g><g><path class="st205" d="M67.501,131.456c-3.515,0-6.62-2.113-7.909-5.384L33.234,59.194c-1.719-4.359,0.431-9.305,4.791-11.024        c1.001-0.394,2.049-0.593,3.115-0.593c3.516,0,6.621,2.114,7.91,5.385l18.45,46.812l18.448-46.812        c1.292-3.272,4.397-5.385,7.912-5.385c1.066,0,2.114,0.2,3.113,0.593c2.113,0.833,3.774,2.438,4.68,4.521        c0.904,2.082,0.944,4.392,0.111,6.504l-26.357,66.877C74.119,129.343,71.016,131.456,67.501,131.456z M41.141,50.577        c-0.689,0-1.367,0.129-2.017,0.385c-2.82,1.112-4.211,4.312-3.099,7.133l26.357,66.878c0.834,2.116,2.844,3.483,5.118,3.483        c2.273,0,4.282-1.367,5.116-3.483l26.357-66.878c0.539-1.367,0.514-2.862-0.072-4.209c-0.585-1.347-1.66-2.386-3.027-2.925        c-0.647-0.255-1.325-0.384-2.014-0.384c-2.275,0-4.285,1.368-5.121,3.486l-19.844,50.353c-0.226,0.573-0.779,0.95-1.396,0.95        s-1.17-0.377-1.396-0.95L46.26,54.062C45.426,51.945,43.416,50.577,41.141,50.577z"/></g></g><g><g><path class="st205" d="M32.165,39.294c-3.516,0-6.621-2.114-7.911-5.386L16.865,15.16c-1.201-3.048-0.525-6.559,1.722-8.945        c2.217-2.352,5.754-3.255,8.828-2.25l40.086,13.102l40.085-13.102c3.074-1.006,6.613-0.101,8.827,2.251        c2.248,2.383,2.924,5.895,1.722,8.944l-7.389,18.748c-1.29,3.272-4.395,5.386-7.909,5.386c-1.066,0-2.115-0.2-3.115-0.593        c-4.361-1.72-6.511-6.666-4.792-11.025l0.765-1.938l-25.554,8.351c-1.705,0.559-3.573,0.56-5.282,0l-25.553-8.351l0.765,1.938        c1.719,4.36-0.431,9.305-4.791,11.025C34.279,39.094,33.231,39.294,32.165,39.294z M24.774,6.543        c-1.509,0-2.969,0.63-4.004,1.729c-1.454,1.543-1.892,3.815-1.114,5.788l7.389,18.748c0.835,2.118,2.845,3.486,5.119,3.486        c0.689,0,1.367-0.13,2.016-0.385c2.821-1.113,4.212-4.312,3.1-7.133l-1.934-4.905c-0.213-0.541-0.095-1.156,0.304-1.579        c0.399-0.423,1.011-0.576,1.558-0.397l28.584,9.342c1.107,0.362,2.313,0.362,3.417,0l28.585-9.342        c0.549-0.179,1.159-0.026,1.558,0.397s0.517,1.038,0.304,1.579l-1.934,4.905c-1.112,2.821,0.278,6.021,3.1,7.133        c0.648,0.255,1.327,0.385,2.017,0.385c2.274,0,4.283-1.368,5.118-3.486l7.389-18.748c0.777-1.974,0.341-4.245-1.113-5.787        c-1.436-1.523-3.721-2.108-5.713-1.457L67.967,20.07c-0.303,0.099-0.629,0.099-0.932,0L26.482,6.816        C25.929,6.635,25.354,6.543,24.774,6.543z"/></g></g></g></g></g><g><g><circle class="st159" cx="67.5" cy="52.065" r="15.735"/></g><g><path class="st166" d="M83.235,52.065c0,6.658-7.045,12.054-15.736,12.054c-8.689,0-15.734-5.396-15.734-12.054     c0-6.651,7.045-12.054,15.734-12.054C76.19,40.012,83.235,45.414,83.235,52.065z"/></g><g><path class="st188" d="M51.765,52.065c0,8.691,7.045,15.737,15.734,15.737c8.691,0,15.736-7.046,15.736-15.737H51.765z"/></g><g><path class="st253" d="M67.499,64.119c8.691,0,15.736-5.396,15.736-12.054H51.765C51.765,58.724,58.81,64.119,67.499,64.119z"/></g><g><path class="st205" d="M67.499,69.303c-9.503,0-17.234-7.732-17.234-17.237c0-9.503,7.731-17.235,17.234-17.235     c9.504,0,17.236,7.732,17.236,17.235C84.735,61.57,77.003,69.303,67.499,69.303z M67.499,37.83     c-7.849,0-14.234,6.386-14.234,14.235c0,7.851,6.386,14.237,14.234,14.237c7.85,0,14.236-6.387,14.236-14.237     C81.735,44.216,75.349,37.83,67.499,37.83z"/></g><g><path class="st205" d="M83.235,53.565H51.765c-0.828,0-1.5-0.671-1.5-1.5s0.672-1.5,1.5-1.5h31.471c0.828,0,1.5,0.671,1.5,1.5     S84.063,53.565,83.235,53.565z"/></g><g><g><circle class="st247" cx="67.5" cy="53.869" r="5.202"/></g><g><circle class="st188" cx="67.5" cy="52.099" r="5.202"/></g><g><path class="st232" d="M63.821,55.777c-2.031-2.029-2.031-5.326,0-7.356c2.031-2.031,5.326-2.031,7.357,0"/></g><g><path class="st205" d="M67.5,58.803c-1.791,0-3.475-0.698-4.74-1.966c-1.265-1.264-1.962-2.947-1.962-4.738      s0.697-3.474,1.963-4.74c1.266-1.265,2.949-1.962,4.739-1.962s3.474,0.697,4.739,1.963c1.267,1.265,1.965,2.948,1.965,4.74      c-0.001,1.792-0.698,3.474-1.966,4.739C70.975,58.105,69.291,58.803,67.5,58.803z M67.5,48.397      c-0.989,0-1.919,0.385-2.618,1.084c-0.699,0.699-1.084,1.628-1.084,2.618c0,0.989,0.385,1.918,1.084,2.617      c1.4,1.402,3.837,1.401,5.235,0.001c0.701-0.7,1.086-1.628,1.087-2.617c0-0.989-0.386-1.919-1.085-2.618      C69.419,48.782,68.489,48.397,67.5,48.397z"/></g></g></g></g></svg>