<?xml version="1.0" ?><!DOCTYPE svg  PUBLIC '-//W3C//DTD SVG 1.1//EN'  'http://www.w3.org/Graphics/SVG/1.1/DTD/svg11.dtd'><svg enable-background="new 0 0 100 100" height="100px" id="Layer_1" version="1.1" viewBox="0 0 100 100" width="100px" xml:space="preserve" xmlns="http://www.w3.org/2000/svg" xmlns:xlink="http://www.w3.org/1999/xlink"><g><g><path d="M50,5C30.67,5,15,20.67,15,40c0,0.289,0.015,0.574,0.022,0.861c0.392-1.575,13.013-2.496,27.438-2.739    c0.841-3.386,3.893-5.899,7.54-5.899c3.643,0,6.692,2.508,7.537,5.889c14.427,0.224,27.05,1.133,27.441,2.748    C84.985,40.573,85,40.288,85,40C85,20.67,69.33,5,50,5z"/><path d="M50,47.778c-3.603,0-6.625-2.453-7.509-5.778c-13.41,0.208-25.268,1.006-27.205,2.414    c0.888,7.056,3.88,13.455,8.323,18.556c5.327,6.116,10.594,12.285,15.661,18.618L50,95l10.73-13.412    c5.071-6.339,10.346-12.51,15.675-18.635c4.434-5.096,7.419-11.486,8.308-18.531c-1.94-1.377-13.797-2.187-27.206-2.412    C56.619,45.33,53.599,47.778,50,47.778z"/></g><circle cx="50" cy="40" r="5.833"/></g></svg>