<?xml version="1.0" ?><!DOCTYPE svg  PUBLIC '-//W3C//DTD SVG 1.1//EN'  'http://www.w3.org/Graphics/SVG/1.1/DTD/svg11.dtd'><svg enable-background="new 0 0 100 100" height="100px" id="Layer_1" version="1.1" viewBox="0 0 100 100" width="100px" xml:space="preserve" xmlns="http://www.w3.org/2000/svg" xmlns:xlink="http://www.w3.org/1999/xlink"><g><path d="M70.98,5H29.02C26.8,5,25,6.8,25,9.02V90.98C25,93.2,26.8,95,29.02,95H70.98C73.2,95,75,93.2,75,90.98V9.02   C75,6.8,73.2,5,70.98,5z M50,93c-1.657,0-3-1.343-3-3s1.343-3,3-3s3,1.343,3,3S51.657,93,50,93z M72.5,85h-45V15h45V85z"/><g><g><g><path d="M45.484,52.69c0.927,1.567,2.63,2.579,4.516,2.579c1.883,0,3.585-1.009,4.513-2.573c4.85,0.109,7.673,0.358,9.103,0.573      c-1.478,6.223-7.088,10.75-13.616,10.75c-6.533,0-12.145-4.532-13.619-10.761C37.806,53.042,40.627,52.793,45.484,52.69       M46.621,50.919c-6.035,0.093-11.371,0.453-12.242,1.086c0.977,7.76,7.596,13.764,15.621,13.764      c8.024,0,14.642-6.002,15.62-13.76c-0.873-0.62-6.209-0.984-12.243-1.085c-0.399,1.494-1.758,2.596-3.378,2.596      C48.379,53.519,47.019,52.415,46.621,50.919L46.621,50.919z"/></g><circle cx="50" cy="50.019" r="2.45"/></g><path d="M50,34.231c-8.698,0-15.75,7.052-15.75,15.75c0,0.13,0.007,0.258,0.01,0.387c0.057-0.23,0.694-0.428,1.745-0.595    c0.107-7.33,5.835-13.61,13.064-14.11C49.573,35.629,50,36.034,50,36.539v0c0,0.46-0.357,0.839-0.816,0.869    c-6.351,0.42-11.393,5.703-11.432,12.149c2.28-0.223,5.456-0.364,8.855-0.421c0.379-1.524,1.752-2.655,3.393-2.655    c1.639,0,3.011,1.129,3.392,2.65c6.492,0.101,12.172,0.51,12.348,1.236c0.003-0.129,0.01-0.257,0.01-0.387    C65.75,41.283,58.698,34.231,50,34.231z"/></g></g></svg>